#!OML:ASF X:\für Bonn\!DataBase\2005_08_12_Daniel\c3d\Daniel.ASF
:FULLY-SPECIFIED
:DEGREES
174
root 4.6894 17.0535 -1.5298 -347.245 -81.6633 341.598
lowerback 11.3757 -6.02595 9.20712
upperback 2.68687 -6.96063 2.16177
thorax -4.31261 -3.58737 -1.76498
lowerneck 9.64573 14.0307 0.643318
upperneck 7.65537 18.931 -15.2495
head 2.2932 9.15647 -4.66879
rclavicle -3.51849e-014 -2.70347e-014
rhumerus -45.345 16.0271 -101.869
rradius 93.9923
rwrist 4.43375
rhand -20.807 30.5989
rfingers 7.12502
rthumb 5.56074 0.691873
lclavicle -3.51849e-014 -2.70347e-014
lhumerus -39.0241 -2.91286 89.2173
lradius 130.181
lwrist 7.93389
lhand -20.1339 -26.6973
lfingers 7.12502
lthumb 6.2105 3.19164
rfemur -15.9512 -5.83398 20.8397
rtibia 42.117
rfoot -29.1796 -16.3715
rtoes -3.2856
lfemur -4.88094 -6.77446 -15.365
ltibia 44.2425
lfoot -36.342 12.2143
ltoes -17.9871
175
root 4.70584 17.0557 -1.50262 -348.147 -81.6862 342.474
lowerback 11.549 -6.00911 9.0278
upperback 2.72418 -6.94333 2.11634
thorax -4.35184 -3.57724 -1.70381
lowerneck 9.66826 14.0364 0.717315
upperneck 7.27527 18.9115 -15.2334
head 2.179 9.18029 -4.68815
rclavicle -5.92378e-014 1.35174e-014
rhumerus -45.5016 16.4308 -102.218
rradius 94.5384
rwrist 4.28724
rhand -20.8552 30.5191
rfingers 7.12502
rthumb 5.51417 0.61086
lclavicle -5.92378e-014 1.35174e-014
lhumerus -39.0977 -3.02241 89.4534
lradius 129.978
lwrist 7.58712
lhand -20.2837 -26.8228
lfingers 7.12502
lthumb 6.06592 3.07037
rfemur -15.9772 -5.94201 20.5682
rtibia 42.1181
rfoot -28.9726 -16.3053
rtoes -3.442
lfemur -4.84029 -6.96876 -15.6912
ltibia 44.1886
lfoot -36.3326 12.4118
ltoes -17.8791
176
root 4.71997 17.0599 -1.47561 -349.049 -81.7507 343.399
lowerback 11.6635 -5.97727 8.82697
upperback 2.75424 -6.91533 2.07058
thorax -4.36323 -3.56094 -1.63904
lowerneck 9.67059 14.053 0.76916
upperneck 6.91454 18.9064 -15.1848
head 2.07038 9.20844 -4.69279
rclavicle 1.07344e-014 -8.74653e-015
rhumerus -45.6694 16.8225 -102.555
rradius 95.0475
rwrist 4.11497
rhand -20.8755 30.5304
rfingers 7.12502
rthumb 5.49453 0.621675
lclavicle 1.07344e-014 -8.74653e-015
lhumerus -39.1851 -3.12856 89.7187
lradius 129.783
lwrist 7.23474
lhand -20.429 -26.8847
lfingers 7.12502
lthumb 5.92568 3.01246
rfemur -16.0583 -5.99456 20.2896
rtibia 42.1274
rfoot -28.7687 -16.248
rtoes -3.63241
lfemur -4.82289 -7.16403 -16.0427
ltibia 44.1242
lfoot -36.331 12.6448
ltoes -17.7615
177
root 4.73381 17.0626 -1.44964 -349.934 -81.8233 344.312
lowerback 11.7735 -5.94898 8.61864
upperback 2.77421 -6.893 2.02519
thorax -4.38272 -3.54766 -1.56853
lowerneck 9.71939 14.071 0.850317
upperneck 6.55527 18.904 -15.1587
head 1.95994 9.23931 -4.71168
rclavicle -4.32357e-014 -8.74653e-015
rhumerus -45.8632 17.2329 -102.899
rradius 95.5099
rwrist 3.97731
rhand -20.8949 30.5729
rfingers 7.12502
rthumb 5.4758 0.663685
lclavicle -4.32357e-014 -8.74653e-015
lhumerus -39.2822 -3.21454 90.0077
lradius 129.596
lwrist 6.89109
lhand -20.5582 -26.9068
lfingers 7.12502
lthumb 5.80086 2.99382
rfemur -16.1561 -6.04835 20.0186
rtibia 42.1487
rfoot -28.5535 -16.1762
rtoes -3.88227
lfemur -4.80792 -7.36429 -16.3904
ltibia 44.0548
lfoot -36.3612 12.8836
ltoes -17.6619
178
root 4.74587 17.0652 -1.42413 -350.644 -81.9185 345.055
lowerback 11.8517 -5.90689 8.4306
upperback 2.80857 -6.85536 1.97911
thorax -4.37044 -3.5262 -1.51669
lowerneck 9.75311 14.0876 0.984158
upperneck 6.21408 18.9107 -15.151
head 1.86451 9.27376 -4.74072
rclavicle 5.45664e-014 -9.54166e-015
rhumerus -46.0327 17.6357 -103.229
rradius 95.9261
rwrist 3.88871
rhand -20.9473 30.5685
rfingers 7.12502
rthumb 5.42527 0.657967
lclavicle 5.45664e-014 -9.54166e-015
lhumerus -39.3606 -3.33144 90.3182
lradius 129.411
lwrist 6.56988
lhand -20.6915 -26.915
lfingers 7.12502
lthumb 5.67219 2.98908
rfemur -16.2609 -6.04756 19.7784
rtibia 42.1764
rfoot -28.34 -16.1022
rtoes -4.09022
lfemur -4.79386 -7.52652 -16.7077
ltibia 43.9858
lfoot -36.3747 13.1245
ltoes -17.5041
